<?xml version="1.0" encoding="utf-8"?>
<!-- Generator: Adobe Illustrator 24.0.1, SVG Export Plug-In . SVG Version: 6.00 Build 0)  -->
<svg version="1.1" id="Layer_1" xmlns="http://www.w3.org/2000/svg" xmlns:xlink="http://www.w3.org/1999/xlink" x="0px" y="0px"
	 viewBox="0 0 125.6 44" style="enable-background:new 0 0 125.6 44;" xml:space="preserve">
<style type="text/css">
	.st0{fill:#FFFFFF;}
	.st1{font-family:'Overpass-SemiBold';}
	.st2{font-size:15px;}
	.st3{font-family:'Overpass-Bold';}
	.st4{font-size:20px;}
	.st5{fill:#CC0000;}
</style>
<title>logo</title>
<text transform="matrix(1 0 0 1 49.8 16.2)" class="st0 st1 st2">OP</text>
<text transform="matrix(1 0 0 1 70.4 16.2)" class="st0 st1 st2">E</text>
<text transform="matrix(1 0 0 1 79.5 16.2)" class="st0 st1 st2">R</text>
<text transform="matrix(1 0 0 1 88.9 16.2)" class="st0 st1 st2">A</text>
<text transform="matrix(1 0 0 1 96.6 16.2)" class="st0 st1 st2">T</text>
<text transform="matrix(1 0 0 1 104.3 16.2)" class="st0 st1 st2">O</text>
<text transform="matrix(1 0 0 1 115.4 16.2)" class="st0 st1 st2">R</text>
<text transform="matrix(1 0 0 1 49.8 33.8)" class="st0 st3 st4">SDK</text>
<g>
	<circle class="st5" cx="22.5" cy="21.9" r="21.8"/>
	<path class="st0" d="M27.3,3.2L9.5,26l12.9,0.1c0.4,0,0.8,0.4,0.6,0.9l-3.4,13c-0.1,0.4,0.4,0.6,0.6,0.3l15.1-19.9
		c0.1-0.2,0-0.5-0.3-0.5H22.9c-0.6,0-1-0.6-0.8-1.1l5.3-14.5L27.3,3.2z"/>
</g>
</svg>
